<svg width="48" height="48" viewBox="0 0 48 48" fill="none" xmlns="http://www.w3.org/2000/svg">
<path d="M24 4C12.954 4 4 12.954 4 24C4 35.046 12.954 44 24 44C35.046 44 44 35.046 44 24C44 12.954 35.046 4 24 4ZM24 42C14.075 42 6 33.925 6 24C6 14.075 14.075 6 24 6C33.925 6 42 14.075 42 24C42 33.925 33.925 42 24 42Z" fill="#9A9A9A"/>
<path d="M25 21H23V35H25V21Z" fill="#9A9A9A"/>
<path d="M24 16C25.1046 16 26 15.1046 26 14C26 12.8954 25.1046 12 24 12C22.8954 12 22 12.8954 22 14C22 15.1046 22.8954 16 24 16Z" fill="#9A9A9A"/>
</svg>
